<svg xmlns="http://www.w3.org/2000/svg" viewBox="0 0 1180 560" width="1180" height="560" font-family="Inter, system-ui, -apple-system, sans-serif">
  <defs>
    <pattern id="dots" width="26" height="26" patternUnits="userSpaceOnUse">
      <circle cx="2" cy="2" r="1" fill="rgba(255,255,255,0.045)"/>
    </pattern>
    <marker id="arrow" viewBox="0 0 10 10" refX="8" refY="5" markerWidth="6" markerHeight="6" orient="auto-start-reverse">
      <path d="M 0 1 L 9 5 L 0 9 z" fill="#a78bfa"/>
    </marker>
    <linearGradient id="glow" x1="0" y1="0" x2="1" y2="1">
      <stop offset="0%" stop-color="#a78bfa" stop-opacity="0.18"/>
      <stop offset="100%" stop-color="#a78bfa" stop-opacity="0"/>
    </linearGradient>
  </defs>
  <rect width="1180" height="560" rx="18" fill="#0a0a0f"/>
  <rect width="1180" height="560" rx="18" fill="url(#dots)"/>
  <circle cx="1100" cy="60" r="260" fill="url(#glow)"/>
  <!-- top bar -->
  <g transform="translate(28,26)">
    <circle cx="6" cy="6" r="6" fill="#ef4444"/>
    <circle cx="26" cy="6" r="6" fill="#f59e0b"/>
    <circle cx="46" cy="6" r="6" fill="#22c55e"/>
    <text x="74" y="11" font-size="14" font-weight="700" fill="#fafafa">n8n · RAG University Chatbot</text>
  </g>
  <g transform="translate(1030,16)">
    <rect width="122" height="24" rx="12" fill="rgba(167,139,250,0.12)" stroke="rgba(167,139,250,0.35)"/>
    <text x="61" y="16" font-size="11" font-weight="600" fill="#a78bfa" text-anchor="middle">PRODUCCIÓN</text>
  </g>
  <text x="40" y="120" font-size="12" font-weight="700" fill="#a1a1aa" letter-spacing="1">INDEXACIÓN · INGESTA</text><text x="40" y="350" font-size="12" font-weight="700" fill="#a1a1aa" letter-spacing="1">CONSULTA · RAG</text>
  <path id="p0" d="M 250 188 C 285 188, 285 188, 320 188" fill="none" stroke="#a78bfa" stroke-width="2.5" opacity="0.55" marker-end="url(#arrow)"/>
  <circle r="3.5" fill="#c4b5fd">
    <animateMotion dur="2.6s" repeatCount="indefinite" rotate="auto">
      <mpath href="#p0"/>
    </animateMotion>
  </circle>
  <path id="p1" d="M 530 188 C 565 188, 565 188, 600 188" fill="none" stroke="#a78bfa" stroke-width="2.5" opacity="0.55" marker-end="url(#arrow)"/>
  <circle r="3.5" fill="#c4b5fd">
    <animateMotion dur="2.6s" repeatCount="indefinite" rotate="auto">
      <mpath href="#p1"/>
    </animateMotion>
  </circle>
  <path id="p2" d="M 810 188 C 845 188, 845 188, 880 188" fill="none" stroke="#a78bfa" stroke-width="2.5" opacity="0.55" marker-end="url(#arrow)"/>
  <circle r="3.5" fill="#c4b5fd">
    <animateMotion dur="2.6s" repeatCount="indefinite" rotate="auto">
      <mpath href="#p2"/>
    </animateMotion>
  </circle>
  <path id="p3" d="M 250 418 C 285 418, 285 418, 320 418" fill="none" stroke="#a78bfa" stroke-width="2.5" opacity="0.55" marker-end="url(#arrow)"/>
  <circle r="3.5" fill="#c4b5fd">
    <animateMotion dur="2.6s" repeatCount="indefinite" rotate="auto">
      <mpath href="#p3"/>
    </animateMotion>
  </circle>
  <path id="p4" d="M 530 418 C 565 418, 565 418, 600 418" fill="none" stroke="#a78bfa" stroke-width="2.5" opacity="0.55" marker-end="url(#arrow)"/>
  <circle r="3.5" fill="#c4b5fd">
    <animateMotion dur="2.6s" repeatCount="indefinite" rotate="auto">
      <mpath href="#p4"/>
    </animateMotion>
  </circle>
  <path id="p5" d="M 810 418 C 845 418, 845 418, 880 418" fill="none" stroke="#a78bfa" stroke-width="2.5" opacity="0.55" marker-end="url(#arrow)"/>
  <circle r="3.5" fill="#c4b5fd">
    <animateMotion dur="2.6s" repeatCount="indefinite" rotate="auto">
      <mpath href="#p5"/>
    </animateMotion>
  </circle>
  <path id="p6" d="M 985 226 C 985 303, 425 303, 425 380" fill="none" stroke="#a78bfa" stroke-width="2.5" opacity="0.55" marker-end="url(#arrow)"/>
  <circle r="3.5" fill="#c4b5fd">
    <animateMotion dur="2.6s" repeatCount="indefinite" rotate="auto">
      <mpath href="#p6"/>
    </animateMotion>
  </circle>
  <g transform="translate(40,150)">
    <rect width="210" height="76" rx="14" fill="#17171d" stroke="#33333d" stroke-width="1.5"/>
    <rect x="14" y="18" width="40" height="40" rx="11" fill="#1e3a5f"/>
    <text x="34" y="45" font-size="20" text-anchor="middle">📚</text>
    <text x="66" y="34" font-size="15" font-weight="600" fill="#fafafa">Document Loader</text>
    <text x="66" y="53" font-size="11.5" fill="#a1a1aa">PDF · DOCX · Web</text>
  </g>
  <g transform="translate(320,150)">
    <rect width="210" height="76" rx="14" fill="#17171d" stroke="#33333d" stroke-width="1.5"/>
    <rect x="14" y="18" width="40" height="40" rx="11" fill="#3b2f5e"/>
    <text x="34" y="45" font-size="20" text-anchor="middle">✂️</text>
    <text x="66" y="34" font-size="15" font-weight="600" fill="#fafafa">Text Splitter</text>
    <text x="66" y="53" font-size="11.5" fill="#a1a1aa">Chunking + overlap</text>
  </g>
  <g transform="translate(600,150)">
    <rect width="210" height="76" rx="14" fill="#17171d" stroke="#33333d" stroke-width="1.5"/>
    <rect x="14" y="18" width="40" height="40" rx="11" fill="#5e2f4f"/>
    <text x="34" y="45" font-size="20" text-anchor="middle">🧬</text>
    <text x="66" y="34" font-size="15" font-weight="600" fill="#fafafa">Embeddings</text>
    <text x="66" y="53" font-size="11.5" fill="#a1a1aa">OpenAI · Gemini</text>
  </g>
  <g transform="translate(880,150)">
    <rect width="210" height="76" rx="14" fill="#17171d" stroke="#33333d" stroke-width="1.5"/>
    <rect x="14" y="18" width="40" height="40" rx="11" fill="#2f5e44"/>
    <text x="34" y="45" font-size="20" text-anchor="middle">🗄️</text>
    <text x="66" y="34" font-size="15" font-weight="600" fill="#fafafa">Vector Store</text>
    <text x="66" y="53" font-size="11.5" fill="#a1a1aa">Qdrant</text>
  </g>
  <g transform="translate(40,380)">
    <rect width="210" height="76" rx="14" fill="#17171d" stroke="#33333d" stroke-width="1.5"/>
    <rect x="14" y="18" width="40" height="40" rx="11" fill="#5e4a2f"/>
    <text x="34" y="45" font-size="20" text-anchor="middle">💬</text>
    <text x="66" y="34" font-size="15" font-weight="600" fill="#fafafa">Chat Trigger</text>
    <text x="66" y="53" font-size="11.5" fill="#a1a1aa">Webhook · Widget</text>
  </g>
  <g transform="translate(320,380)">
    <rect width="210" height="76" rx="14" fill="#17171d" stroke="#33333d" stroke-width="1.5"/>
    <rect x="14" y="18" width="40" height="40" rx="11" fill="#2f4a5e"/>
    <text x="34" y="45" font-size="20" text-anchor="middle">🔎</text>
    <text x="66" y="34" font-size="15" font-weight="600" fill="#fafafa">Semantic Retrieval</text>
    <text x="66" y="53" font-size="11.5" fill="#a1a1aa">Top-k · RAG</text>
  </g>
  <g transform="translate(600,380)">
    <rect width="210" height="76" rx="14" fill="#17171d" stroke="#33333d" stroke-width="1.5"/>
    <rect x="14" y="18" width="40" height="40" rx="11" fill="#4a2f5e"/>
    <text x="34" y="45" font-size="20" text-anchor="middle">🧠</text>
    <text x="66" y="34" font-size="15" font-weight="600" fill="#fafafa">AI Agent · LLM</text>
    <text x="66" y="53" font-size="11.5" fill="#a1a1aa">GPT-4o · Gemini</text>
  </g>
  <g transform="translate(880,380)">
    <rect width="210" height="76" rx="14" fill="#17171d" stroke="#33333d" stroke-width="1.5"/>
    <rect x="14" y="18" width="40" height="40" rx="11" fill="#2f5e3a"/>
    <text x="34" y="45" font-size="20" text-anchor="middle">✅</text>
    <text x="66" y="34" font-size="15" font-weight="600" fill="#fafafa">Respuesta</text>
    <text x="66" y="53" font-size="11.5" fill="#a1a1aa">Grounded answer</text>
  </g>
</svg>